<svg xmlns="http://www.w3.org/2000/svg" xmlns:xlink="http://www.w3.org/1999/xlink" data-v-decfdd8a="" version="1.0" width="100%" height="100%" viewBox="0 0 340.000000 250.000000" preserveAspectRatio="xMidYMid meet" color-interpolation-filters="sRGB" style="margin: auto;"> <rect data-v-decfdd8a="" x="0" y="0" width="100%" height="100%" fill="#ffffff" fill-opacity="1" class="background"/>  <g data-v-decfdd8a="" fill="#57ec99" class="icon-text-wrapper icon-svg-group iconsvg" transform="translate(80.93999493122101,80.38703155517578)">
<g transform="translate(0,65.4359359741211)">
    <g data-gra="path-name" fill-rule="" class="tp-name iconsvg-namesvg" fill="url(#4eb5de9d-1c04-4da8-9828-32fe427a52e7)">
        <g transform="scale(1)">
            <g>
                <path d="M11.01-8.14L11.01-12.65 20.34-12.65 20.34-1.01Q16.54 0.3 11.99 0.3L11.99 0.3Q6.99 0.3 4.26-2.6 1.54-5.5 1.54-10.86L1.54-10.86Q1.54-16.1 4.52-19.01 7.51-21.92 12.89-21.92L12.89-21.92Q14.93-21.92 16.74-21.54 18.55-21.15 19.9-20.56L19.9-20.56 18.05-15.98Q15.71-17.13 12.92-17.13L12.92-17.13Q10.36-17.13 8.97-15.47 7.57-13.81 7.57-10.72L7.57-10.72Q7.57-7.69 8.83-6.1 10.1-4.51 12.48-4.51L12.48-4.51Q13.78-4.51 14.87-4.76L14.87-4.76 14.87-8.14 11.01-8.14ZM43.09-11.26L43.09-11.26Q43.09-5.85 40.11-2.93 37.13 0 31.74 0L31.74 0 24.75 0 24.75-21.61 32.22-21.61Q37.43-21.61 40.26-18.95 43.09-16.29 43.09-11.26ZM37.03-11.06L37.03-11.06Q37.03-14.03 35.85-15.46 34.68-16.9 32.28-16.9L32.28-16.9 30.58-16.9 30.58-4.79 31.88-4.79Q34.55-4.79 35.79-6.33 37.03-7.88 37.03-11.06ZM61.09-6.56L61.09-6.56Q61.09-4.55 60.07-2.99 59.05-1.43 57.13-0.57 55.21 0.3 52.62 0.3L52.62 0.3Q50.47 0.3 49-0.01 47.54-0.31 45.96-1.06L45.96-1.06 45.96-6.27Q47.63-5.41 49.43-4.93 51.23-4.45 52.74-4.45L52.74-4.45Q54.04-4.45 54.65-4.9 55.25-5.35 55.25-6.06L55.25-6.06Q55.25-6.5 55.01-6.84 54.77-7.17 54.23-7.51 53.69-7.85 51.35-8.9L51.35-8.9Q49.24-9.86 48.18-10.76 47.12-11.66 46.61-12.83 46.1-14 46.1-15.59L46.1-15.59Q46.1-18.58 48.28-20.25 50.45-21.92 54.25-21.92L54.25-21.92Q57.61-21.92 61.09-20.37L61.09-20.37 59.31-15.86Q56.27-17.25 54.07-17.25L54.07-17.25Q52.93-17.25 52.42-16.85 51.9-16.45 51.9-15.86L51.9-15.86Q51.9-15.23 52.56-14.72 53.22-14.22 56.13-12.89L56.13-12.89Q58.92-11.63 60.01-10.19 61.09-8.75 61.09-6.56ZM81.43-10.6L84.43-21.61 90.97-21.61 83.89 0 77.01 0 69.96-21.61 76.53-21.61 79.47-10.66Q80.38-7.01 80.47-5.57L80.47-5.57Q80.58-6.61 80.89-8.16 81.2-9.71 81.43-10.6L81.43-10.6ZM98.77-16.75L98.77 0 92.99 0 92.99-16.75 98.77-16.75ZM92.85-20.92L92.85-20.92Q92.85-22.22 93.57-22.85 94.29-23.49 95.91-23.49L95.91-23.49Q97.52-23.49 98.26-22.84 98.99-22.19 98.99-20.92L98.99-20.92Q98.99-18.37 95.91-18.37L95.91-18.37Q92.85-18.37 92.85-20.92ZM110.89 0.3L110.89 0.3Q106.71 0.3 104.4-1.93 102.08-4.15 102.08-8.26L102.08-8.26Q102.08-12.51 104.23-14.77 106.37-17.04 110.35-17.04L110.35-17.04Q114.13-17.04 116.19-15.07 118.26-13.1 118.26-9.39L118.26-9.39 118.26-6.81 107.92-6.81Q107.98-5.41 108.95-4.61 109.92-3.81 111.59-3.81L111.59-3.81Q113.11-3.81 114.39-4.1 115.67-4.39 117.16-5.08L117.16-5.08 117.16-0.93Q115.8-0.24 114.35 0.03 112.9 0.3 110.89 0.3ZM110.55-13.11L110.55-13.11Q109.53-13.11 108.85-12.47 108.16-11.83 108.04-10.45L108.04-10.45 113.01-10.45Q112.98-11.66 112.32-12.39 111.66-13.11 110.55-13.11ZM142.11 0L135.93 0 134.04-7.98 133.6-10.39 133.3-12.33 133.22-12.33Q132.49-8.19 132.24-7.11L132.24-7.11 130.54 0 124.46 0 119.9-16.75 125.59-16.75 126.95-10.32Q127.6-7.01 127.7-4.82L127.7-4.82 127.79-4.82Q127.83-6.18 128.6-9.99L128.6-9.99 130.16-16.75 136.54-16.75 137.96-9.9Q138.64-6.64 138.82-4.82L138.82-4.82 138.91-4.82Q138.99-5.94 139.2-7.62 139.41-9.3 139.66-10.32L139.66-10.32 141.14-16.75 146.71-16.75 142.11 0ZM157.16 0.3L157.16 0.3Q152.98 0.3 150.67-1.93 148.35-4.15 148.35-8.26L148.35-8.26Q148.35-12.51 150.5-14.77 152.64-17.04 156.61-17.04L156.61-17.04Q160.4-17.04 162.46-15.07 164.52-13.1 164.52-9.39L164.52-9.39 164.52-6.81 154.19-6.81Q154.25-5.41 155.22-4.61 156.19-3.81 157.86-3.81L157.86-3.81Q159.38-3.81 160.66-4.1 161.94-4.39 163.43-5.08L163.43-5.08 163.43-0.93Q162.07-0.24 160.62 0.03 159.17 0.3 157.16 0.3ZM156.82-13.11L156.82-13.11Q155.8-13.11 155.11-12.47 154.43-11.83 154.31-10.45L154.31-10.45 159.28-10.45Q159.25-11.66 158.59-12.39 157.93-13.11 156.82-13.11ZM177.9-17.04L177.9-17.04Q178.65-17.04 179.33-16.93L179.33-16.93 179.66-16.87 179.14-11.41Q178.43-11.59 177.18-11.59L177.18-11.59Q175.28-11.59 174.43-10.72 173.57-9.86 173.57-8.23L173.57-8.23 173.57 0 167.79 0 167.79-16.75 172.09-16.75 172.99-14.07 173.27-14.07Q174-15.4 175.29-16.22 176.59-17.04 177.9-17.04Z" transform="translate(-1.5399999618530273, 23.489999771118164)"/>
            </g>
            <!---->
            <!---->
            <!---->
            <!---->
            <!---->
            <!---->
            <!---->
        </g>
    </g>
    <!---->
</g>
</g>
<defs v-gra="od">
    <linearGradient x1="0" y1="1" x2="0" y2="0" id="4eb5de9d-1c04-4da8-9828-32fe427a52e7">
        <stop offset="0%" stop-color="#57ec99"/>
        <stop offset="33.33%" stop-color="#1371ef"/>
        <stop offset="66.67%" stop-color="#fc1cd5"/>
        <stop offset="100%" stop-color="#fccc05"/>
    </linearGradient>
    <filter id="42443b3f1de60f6b6fd3b6a9844b4764" filterUnits="objectBoundingBox">
        <feColorMatrix type="matrix" values="0 0 0 0 0.99609375  0 0 0 0 0.99609375  0 0 0 0 0.99609375  0 0 0 1 0"/>
    </filter>
</defs>
<defs v-gra="id">
    <filter id="97d259c3-9bcb-4105-b7ae-e251e909a3b1" filterUnits="userSpaceOnUse">
        <feColorMatrix type="matrix" values="0 0 0 0 0.99609375  0 0 0 0 0.99609375  0 0 0 0 0.99609375  0 0 0 1 0"/>
    </filter>
    <linearGradient x1="0" y1="1" x2="0" y2="0" id="9o3h-GwUQmGb64KTZYR6P">
        <stop offset="0%" stop-color="#57ec99"/>
        <stop offset="33.33%" stop-color="#1371ef"/>
        <stop offset="66.67%" stop-color="#fc1cd5"/>
        <stop offset="100%" stop-color="#fccc05"/>
    </linearGradient>
    <filter id="42443b3f1de60f6b6fd3b6a9844b4764" filterUnits="objectBoundingBox">
        <feColorMatrix type="matrix" values="0 0 0 0 0.99609375  0 0 0 0 0.99609375  0 0 0 0 0.99609375  0 0 0 1 0"/>
    </filter>
</defs>
<mask v-gra="im" id="369e64ca-6e42-4da2-9112-577a30c4bb44">
    <g class="iconsvg-imagesvg" filter="url(#97d259c3-9bcb-4105-b7ae-e251e909a3b1)">
        <g>
            <rect fill="#57ec99" fill-opacity="0" stroke-width="2" x="0" y="0" width="60" height="53.43593031954686" class="image-rect"/> <svg x="0" y="0" width="60" height="53.43593031954686" filtersec="colorsf8250269537" class="image-svg-svg primary" style="overflow: visible;"><svg xmlns="http://www.w3.org/2000/svg" viewBox="0.008744001388549805 -0.00262830825522542 72.43790435791016 64.51334381103516"><title>2eSy4T.tif</title><path d="M36.24 0a1.24 1.24 0 0 1 .76.2q6.6 4.29 13.21 8.56c4.48 2.9 9 5.77 13.44 8.68 2.59 1.67 5.15 3.38 7.71 5.09 1.39.93 1.4 1.89 0 2.86-1.07.74-2.19 1.41-3.27 2.14-.83.55-.8.64 0 1.18a22 22 0 0 1 3.64 2.48c.85.86.86 1.34 0 2.16A29.7 29.7 0 0 1 67.91 36c-.51.34-.64.52 0 .89 1.16.7 2.3 1.45 3.43 2.21 1.44 1 1.49 1.91.06 2.92-1.95 1.37-4 2.67-6 4L44.16 59.73c-2.34 1.51-4.68 3-7 4.53a1.45 1.45 0 0 1-1.63 0c-2.74-1.43-5.25-3.22-7.85-4.87-3.42-2.18-6.79-4.43-10.19-6.64l-13.76-8.9c-.91-.59-1.82-1.18-2.72-1.78-1.33-.88-1.34-2 0-2.9 1.16-.77 2.32-1.53 3.5-2.27.5-.32.52-.57 0-.89-1.15-.73-2.3-1.47-3.43-2.22-1.42-.95-1.43-2.07 0-3 1.12-.77 2.27-1.5 3.42-2.22.51-.33.51-.57 0-.89-1.2-.77-2.36-1.52-3.5-2.31-1.32-.92-1.31-2 0-2.91L21.18 9.34q6.15-4 12.31-8C34.1 1 34.73.63 35.37.3a4.76 4.76 0 0 1 .87-.3zm0 20c-.21.12-.41.2-.59.32L31.43 23 18 31.73c-.77.5-.77.58 0 1.07 5.47 3.55 11 7 16.39 10.68a2.77 2.77 0 0 0 3.69 0c3.94-2.7 8-5.22 12-7.81q2.1-1.35 4.19-2.71c.91-.59.91-.72 0-1.28-.33-.2-.66-.4-1-.62L36.8 20.33c-.18-.12-.38-.21-.59-.33zm31.65 20.65c0-.25-.23-.33-.39-.43-.67-.44-1.38-.83-2-1.32a1.55 1.55 0 0 0-2.07 0c-2.6 1.76-5.25 3.45-7.88 5.16-3.39 2.22-6.78 4.45-10.18 6.64-2.66 1.72-5.35 3.4-8 5.08a2 2 0 0 1-2.32.07c-4.12-2.73-8.28-5.4-12.42-8.09l-14-9.12a.92.92 0 0 0-1.2 0c-.78.54-1.57 1.05-2.38 1.53-.62.37-.45.6 0 .92l16.67 10.79q6.86 4.44 13.68 8.9a1.19 1.19 0 0 0 1.51 0c2.24-1.5 4.51-3 6.77-4.41L57 47.81 67.46 41a4.88 4.88 0 0 0 .43-.35zm0-16.73c-.07-.21-.25-.28-.41-.39l-4.68-3.05L43.33 7.91l-6.51-4.2a1 1 0 0 0-1.23 0C32.08 6 28.55 8.22 25 10.5L9.73 20.42Q7.36 22 5 23.48c-.47.3-.59.52 0 .86a20.57 20.57 0 0 1 2.1 1.43 1.3 1.3 0 0 0 1.72 0Q19 19.1 29.2 12.49c2.1-1.37 4.18-2.74 6.37-4a1.3 1.3 0 0 1 1.48 0l11.75 7.67q7.53 4.86 15 9.75a1 1 0 0 0 1.22 0c.83-.56 1.67-1.1 2.5-1.65.17-.07.35-.12.34-.34zm-.08 8.35c0-.34-.38-.44-.62-.59L49.13 20c-4-2.61-8.06-5.21-12.08-7.84a1.3 1.3 0 0 0-1.67 0c-.7.49-1.45.92-2.18 1.39l-13.69 8.86c-2.66 1.72-5.31 3.45-8 5.16-.58.37-.64.68 0 1.06s1.52.93 2.25 1.43a1 1 0 0 0 1.28 0c1.85-1.24 3.71-2.44 5.58-3.65 4.52-2.92 9.08-5.79 13.55-8.79 1.31-.87 2.42-1.25 3.72-.17a9.39 9.39 0 0 0 .92.56L48 24l15.75 10.19c.34.23.65.45 1.06.19l2.66-1.72a.57.57 0 0 0 .31-.39zm-6.39 4.12a1.54 1.54 0 0 0-.28-.29c-.9-.6-1.8-1.2-2.71-1.79a.77.77 0 0 0-.92.11L54.9 36.1l-11.66 7.58c-1.89 1.23-3.8 2.42-5.69 3.63a2.25 2.25 0 0 1-2.87 0c-2.12-1.52-4.35-2.88-6.54-4.3-3-1.95-6.08-3.89-9.11-5.86q-5.21-3.37-10.39-6.78a1.11 1.11 0 0 0-1.38 0c-.77.54-1.56 1.07-2.36 1.56-.49.31-.48.49 0 .81l16.23 10.45c4.77 3.09 9.56 6.17 14.33 9.27a1.17 1.17 0 0 0 1.45 0l5-3.25 14-9.05c1.6-1 3.22-2.07 4.82-3.13.27-.16.57-.28.66-.64z" fill="#000000"/></svg></svg>
            <defs>
                <filter id="colors8665496400">
                    <feColorMatrix type="matrix" values="0 0 0 0 0.296875  0 0 0 0 0.94921875  0 0 0 0 0.48046875  0 0 0 1 0" class="icon-fecolormatrix"/>
                </filter>
                <filter id="colorsf8250269537">
                    <feColorMatrix type="matrix" values="0 0 0 0 0.99609375  0 0 0 0 0.99609375  0 0 0 0 0.99609375  0 0 0 1 0" class="icon-fecolormatrix"/>
                </filter>
                <filter id="colorsb6008704412">
                    <feColorMatrix type="matrix" values="0 0 0 0 0  0 0 0 0 0  0 0 0 0 0  0 0 0 1 0" class="icon-fecolormatrix"/>
                </filter>
            </defs>
        </g>
    </g>
</mask>
</svg>