0
SECTION
2
HEADER
9
$ACADVER
1
AC1006
0
ENDSEC
0
SECTION
2
TABLES
0
TABLE
2
LAYER
70
9
0
LAYER
70
0
62
1
6
CONTINUOUS
2
L65D20
0
LAYER
70
0
62
2
6
CONTINUOUS
2
L93D44
0
LAYER
70
0
62
3
6
CONTINUOUS
2
L66D20
0
LAYER
70
0
62
4
6
CONTINUOUS
2
L66D44
0
LAYER
70
0
62
5
6
CONTINUOUS
2
L95D20
0
LAYER
70
0
62
6
6
CONTINUOUS
2
L67D20
0
LAYER
70
0
62
7
6
CONTINUOUS
2
L67D44
0
LAYER
70
0
62
8
6
CONTINUOUS
2
L68D20
0
LAYER
70
0
62
9
6
CONTINUOUS
2
L68D5
0
ENDTAB
0
ENDSEC
0
SECTION
2
BLOCKS
0
ENDSEC
0
SECTION
2
ENTITIES
0
POLYLINE
8
L65D20
70
1
40
0
41
0
66
1
0
VERTEX
8
L65D20
10
-0.6
20
0.6
0
VERTEX
8
L65D20
10
-0.6
20
1.1
0
VERTEX
8
L65D20
10
0.55
20
1.1
0
VERTEX
8
L65D20
10
0.55
20
0.6
0
SEQEND
0
POLYLINE
8
L93D44
70
1
40
0
41
0
66
1
0
VERTEX
8
L93D44
10
-0.725
20
0.475
0
VERTEX
8
L93D44
10
-0.725
20
1.225
0
VERTEX
8
L93D44
10
0.675
20
1.225
0
VERTEX
8
L93D44
10
0.675
20
0.475
0
SEQEND
0
POLYLINE
8
L66D20
70
1
40
0
41
0
66
1
0
VERTEX
8
L66D20
10
-0.05
20
0.46
0
VERTEX
8
L66D20
10
-0.05
20
1.5
0
VERTEX
8
L66D20
10
0.1
20
1.5
0
VERTEX
8
L66D20
10
0.1
20
0.46
0
SEQEND
0
POLYLINE
8
L66D20
70
1
40
0
41
0
66
1
0
VERTEX
8
L66D20
10
-0.3
20
0
0
VERTEX
8
L66D20
10
-0.3
20
0.46
0
VERTEX
8
L66D20
10
0.15
20
0.46
0
VERTEX
8
L66D20
10
0.15
20
0
0
SEQEND
0
POLYLINE
8
L66D44
70
1
40
0
41
0
66
1
0
VERTEX
8
L66D44
10
-0.21
20
0.165
0
VERTEX
8
L66D44
10
-0.21
20
0.335
0
VERTEX
8
L66D44
10
-0.04
20
0.335
0
VERTEX
8
L66D44
10
-0.04
20
0.165
0
SEQEND
0
POLYLINE
8
L95D20
70
1
40
0
41
0
66
1
0
VERTEX
8
L95D20
10
-0.31
20
0.065
0
VERTEX
8
L95D20
10
-0.31
20
0.435
0
VERTEX
8
L95D20
10
0.06
20
0.435
0
VERTEX
8
L95D20
10
0.06
20
0.065
0
SEQEND
0
POLYLINE
8
L67D20
70
1
40
0
41
0
66
1
0
VERTEX
8
L67D20
10
-1.05
20
0.7
0
VERTEX
8
L67D20
10
-1.05
20
1
0
VERTEX
8
L67D20
10
-0.35
20
1
0
VERTEX
8
L67D20
10
-0.35
20
0.7
0
SEQEND
0
POLYLINE
8
L67D20
70
1
40
0
41
0
66
1
0
VERTEX
8
L67D20
10
0.3
20
0.7
0
VERTEX
8
L67D20
10
0.3
20
1
0
VERTEX
8
L67D20
10
1.05
20
1
0
VERTEX
8
L67D20
10
1.05
20
0.7
0
SEQEND
0
POLYLINE
8
L67D20
70
1
40
0
41
0
66
1
0
VERTEX
8
L67D20
10
-0.75
20
0.1
0
VERTEX
8
L67D20
10
-0.75
20
0.4
0
VERTEX
8
L67D20
10
0.1
20
0.4
0
VERTEX
8
L67D20
10
0.1
20
0.1
0
SEQEND
0
POLYLINE
8
L67D44
70
1
40
0
41
0
66
1
0
VERTEX
8
L67D44
10
-0.99
20
0.77
0
VERTEX
8
L67D44
10
-0.99
20
0.94
0
VERTEX
8
L67D44
10
-0.82
20
0.94
0
VERTEX
8
L67D44
10
-0.82
20
0.77
0
SEQEND
0
POLYLINE
8
L67D44
70
1
40
0
41
0
66
1
0
VERTEX
8
L67D44
10
0.83
20
0.77
0
VERTEX
8
L67D44
10
0.83
20
0.94
0
VERTEX
8
L67D44
10
1
20
0.94
0
VERTEX
8
L67D44
10
1
20
0.77
0
SEQEND
0
POLYLINE
8
L67D44
70
1
40
0
41
0
66
1
0
VERTEX
8
L67D44
10
-0.7
20
0.17
0
VERTEX
8
L67D44
10
-0.7
20
0.34
0
VERTEX
8
L67D44
10
-0.53
20
0.34
0
VERTEX
8
L67D44
10
-0.53
20
0.17
0
SEQEND
0
POLYLINE
8
L68D20
70
1
40
0
41
0
66
1
0
VERTEX
8
L68D20
10
-1.35
20
0.7
0
VERTEX
8
L68D20
10
-1.35
20
1
0
VERTEX
8
L68D20
10
-0.75
20
1
0
VERTEX
8
L68D20
10
-0.75
20
0.7
0
SEQEND
0
POLYLINE
8
L68D20
70
1
40
0
41
0
66
1
0
VERTEX
8
L68D20
10
0.8
20
0.7
0
VERTEX
8
L68D20
10
0.8
20
1
0
VERTEX
8
L68D20
10
1.45
20
1
0
VERTEX
8
L68D20
10
1.45
20
0.7
0
SEQEND
0
POLYLINE
8
L68D20
70
1
40
0
41
0
66
1
0
VERTEX
8
L68D20
10
-1.2
20
0.1
0
VERTEX
8
L68D20
10
-1.2
20
0.4
0
VERTEX
8
L68D20
10
-0.5
20
0.4
0
VERTEX
8
L68D20
10
-0.5
20
0.1
0
SEQEND
0
TEXT
8
L68D5
10
1.265
20
0.845
40
0
1
drain
50
0
11
1.265
21
0.845
0
TEXT
8
L68D5
10
-1.205
20
0.845
40
0
1
source
50
0
11
-1.205
21
0.845
0
TEXT
8
L68D5
10
-1.015
20
0.255
40
0
1
gate
50
0
11
-1.015
21
0.255
0
POLYLINE
8
L68D5
70
1
40
0
41
0
66
1
0
VERTEX
8
L68D5
10
1.18
20
0.76
0
VERTEX
8
L68D5
10
1.18
20
0.93
0
VERTEX
8
L68D5
10
1.35
20
0.93
0
VERTEX
8
L68D5
10
1.35
20
0.76
0
SEQEND
0
POLYLINE
8
L68D5
70
1
40
0
41
0
66
1
0
VERTEX
8
L68D5
10
-1.29
20
0.76
0
VERTEX
8
L68D5
10
-1.29
20
0.93
0
VERTEX
8
L68D5
10
-1.12
20
0.93
0
VERTEX
8
L68D5
10
-1.12
20
0.76
0
SEQEND
0
POLYLINE
8
L68D5
70
1
40
0
41
0
66
1
0
VERTEX
8
L68D5
10
-1.1
20
0.17
0
VERTEX
8
L68D5
10
-1.1
20
0.34
0
VERTEX
8
L68D5
10
-0.93
20
0.34
0
VERTEX
8
L68D5
10
-0.93
20
0.17
0
SEQEND
0
ENDSEC
0
EOF
